<?xml version="1.0" ?><!DOCTYPE svg PUBLIC "-//W3C//DTD SVG 1.1//EN" "http://www.w3.org/Graphics/SVG/1.1/DTD/svg11.dtd"><svg xmlns="http://www.w3.org/2000/svg" xmlns:xlink="http://www.w3.org/1999/xlink"><symbol viewBox="0 0 32 32" id="arrow" xmlns="http://www.w3.org/2000/svg"><g data-name="Layer 2"><path d="M19 26a1 1 0 0 1-.71-.29 1 1 0 0 1 0-1.42l8.3-8.29-8.3-8.29a1 1 0 0 1 1.42-1.42l9 9a1 1 0 0 1 0 1.42l-9 9A1 1 0 0 1 19 26Z"/><path d="M28 17H4a1 1 0 0 1 0-2h24a1 1 0 0 1 0 2Z"/></g><path style="fill:none" d="M0 0h32v32H0z"/></symbol><symbol viewBox="0 0 34 27" id="email" xmlns="http://www.w3.org/2000/svg"><path d="M28.5 25.6h-23c-2.1 0-3.8-1.707-3.8-3.816V5.416C1.7 3.307 3.4 1.6 5.5 1.6h23c2.1 0 3.8 1.707 3.8 3.816v16.368c.1 2.109-1.7 3.816-3.8 3.816ZM17 14.956 2.6 3.608M31.4 3.608 17 14.956"/></symbol><symbol viewBox="0 0 512 512" xml:space="preserve" id="email__2" xmlns="http://www.w3.org/2000/svg"><path d="M452 68H60C26.916 68 0 94.916 0 128v256c0 33.084 26.916 60 60 60h392c33.084 0 60-26.916 60-60V128c0-33.084-26.916-60-60-60zm20 316c0 11.028-8.972 20-20 20H60c-11.028 0-20-8.972-20-20V128c0-11.028 8.972-20 20-20h392c11.028 0 20 8.972 20 20v256z"/><path d="M468.604 92.937 256 251.074 43.396 92.937l-23.874 32.095L256 300.926l236.478-175.894z"/></symbol><symbol xml:space="preserve" viewBox="0 0 438.549 438.549" id="github" xmlns="http://www.w3.org/2000/svg"><path d="M409.132 114.573c-19.608-33.596-46.205-60.194-79.798-79.8-33.598-19.607-70.277-29.408-110.063-29.408-39.781 0-76.472 9.804-110.063 29.408-33.596 19.605-60.192 46.204-79.8 79.8C9.803 148.168 0 184.854 0 224.63c0 47.78 13.94 90.745 41.827 128.906 27.884 38.164 63.906 64.572 108.063 79.227 5.14.954 8.945.283 11.419-1.996 2.475-2.282 3.711-5.14 3.711-8.562 0-.571-.049-5.708-.144-15.417a2549.81 2549.81 0 0 1-.144-25.406l-6.567 1.136c-4.187.767-9.469 1.092-15.846 1-6.374-.089-12.991-.757-19.842-1.999-6.854-1.231-13.229-4.086-19.13-8.559-5.898-4.473-10.085-10.328-12.56-17.556l-2.855-6.57c-1.903-4.374-4.899-9.233-8.992-14.559-4.093-5.331-8.232-8.945-12.419-10.848l-1.999-1.431c-1.332-.951-2.568-2.098-3.711-3.429-1.142-1.331-1.997-2.663-2.568-3.997-.572-1.335-.098-2.43 1.427-3.289 1.525-.859 4.281-1.276 8.28-1.276l5.708.853c3.807.763 8.516 3.042 14.133 6.851 5.614 3.806 10.229 8.754 13.846 14.842 4.38 7.806 9.657 13.754 15.846 17.847 6.184 4.093 12.419 6.136 18.699 6.136 6.28 0 11.704-.476 16.274-1.423 4.565-.952 8.848-2.383 12.847-4.285 1.713-12.758 6.377-22.559 13.988-29.41-10.848-1.14-20.601-2.857-29.264-5.14-8.658-2.286-17.605-5.996-26.835-11.14-9.235-5.137-16.896-11.516-22.985-19.126-6.09-7.614-11.088-17.61-14.987-29.979-3.901-12.374-5.852-26.648-5.852-42.826 0-23.035 7.52-42.637 22.557-58.817-7.044-17.318-6.379-36.732 1.997-58.24 5.52-1.715 13.706-.428 24.554 3.853 10.85 4.283 18.794 7.952 23.84 10.994 5.046 3.041 9.089 5.618 12.135 7.708 17.705-4.947 35.976-7.421 54.818-7.421s37.117 2.474 54.823 7.421l10.849-6.849c7.419-4.57 16.18-8.758 26.262-12.565 10.088-3.805 17.802-4.853 23.134-3.138 8.562 21.509 9.325 40.922 2.279 58.24 15.036 16.18 22.559 35.787 22.559 58.817 0 16.178-1.958 30.497-5.853 42.966-3.9 12.471-8.941 22.457-15.125 29.979-6.191 7.521-13.901 13.85-23.131 18.986-9.232 5.14-18.182 8.85-26.84 11.136-8.662 2.286-18.415 4.004-29.263 5.146 9.894 8.562 14.842 22.077 14.842 40.539v60.237c0 3.422 1.19 6.279 3.572 8.562 2.379 2.279 6.136 2.95 11.276 1.995 44.163-14.653 80.185-41.062 108.068-79.226 27.88-38.161 41.825-81.126 41.825-128.906-.01-39.771-9.818-76.454-29.414-110.049z"/></symbol><symbol viewBox="0 0 438.536 438.535" xml:space="preserve" id="linkedin" xmlns="http://www.w3.org/2000/svg"><path d="M5.424 145.895H99.64v282.932H5.424zM408.842 171.739c-19.791-21.604-45.967-32.408-78.512-32.408-11.991 0-22.891 1.475-32.695 4.427-9.801 2.95-18.079 7.089-24.838 12.419-6.755 5.33-12.135 10.278-16.129 14.844-3.798 4.337-7.512 9.389-11.136 15.104v-40.232h-93.935l.288 13.706c.193 9.139.288 37.307.288 84.508 0 47.205-.19 108.777-.572 184.722h93.931V270.942c0-9.705 1.041-17.412 3.139-23.127 4-9.712 10.037-17.843 18.131-24.407 8.093-6.572 18.13-9.855 30.125-9.855 16.364 0 28.407 5.662 36.117 16.987 7.707 11.324 11.561 26.98 11.561 46.966V428.82h93.931V266.664c-.007-41.688-9.897-73.328-29.694-94.925zM53.103 9.708c-15.796 0-28.595 4.619-38.4 13.848C4.899 32.787 0 44.441 0 58.529 0 72.42 4.758 84.034 14.275 93.358c9.514 9.325 22.078 13.99 37.685 13.99h.571c15.99 0 28.887-4.661 38.688-13.99 9.801-9.324 14.606-20.934 14.417-34.829-.19-14.087-5.047-25.742-14.561-34.973C81.562 14.323 68.9 9.708 53.103 9.708z"/></symbol><symbol viewBox="0 0 512 512" xml:space="preserve" id="telegram" xmlns="http://www.w3.org/2000/svg"><path d="M501.974 41.949a30.939 30.939 0 0 0-30.555-6.565L21.231 183.785C8.962 187.829.642 198.781.035 211.684c-.606 12.904 6.649 24.589 18.483 29.768l111.335 48.712 33.591 155.795c1.395 6.472 4.68 12.237 11.639 14.01 7.039 1.793 12.012-2.054 17.264-5.986l82.62-61.865 96.589 79.039c5.626 4.606 12.502 7.008 19.513 7.008a31.091 31.091 0 0 0 9.986-1.657c10.166-3.447 17.702-11.744 20.159-22.193L511.18 71.813a30.938 30.938 0 0 0-9.206-29.864zm-302.43 276.128c-.055.13-.109.277-.16.453l-18.624 65.068-20.784-96.395 142.917-79.405-99.921 104.478a15.03 15.03 0 0 0-3.428 5.801zm5.911 88.525 8.459-29.555 8.091-28.269 28.991 23.724-45.541 34.1zM481.908 64.927l-89.965 382.502c-.045.19-.105.452-.545.601-.436.148-.648-.021-.798-.145l-105.691-86.488-.008-.007-48.969-40.072L393.255 156.82a15.035 15.035 0 0 0 1.035-19.579 15.034 15.034 0 0 0-19.204-3.955L142.135 262.715 30.572 213.902c-.34-.148-.527-.231-.5-.806.027-.573.221-.638.573-.754l450.188-148.4c.218-.071.464-.153.826.177.362.332.302.584.249.808z"/></symbol><symbol viewBox="0 0 418.135 418.135" xml:space="preserve" id="whatsapp" xmlns="http://www.w3.org/2000/svg"><path d="M198.929.242C88.5 5.5 1.356 97.466 1.691 208.02c.102 33.672 8.231 65.454 22.571 93.536L2.245 408.429c-1.191 5.781 4.023 10.843 9.766 9.483l104.723-24.811c26.905 13.402 57.125 21.143 89.108 21.631 112.869 1.724 206.982-87.897 210.5-200.724C420.113 93.065 320.295-5.538 198.929.242zm124.957 321.955c-30.669 30.669-71.446 47.559-114.818 47.559-25.396 0-49.71-5.698-72.269-16.935l-14.584-7.265-64.206 15.212 13.515-65.607-7.185-14.07c-11.711-22.935-17.649-47.736-17.649-73.713 0-43.373 16.89-84.149 47.559-114.819 30.395-30.395 71.837-47.56 114.822-47.56 43.372.001 84.147 16.891 114.816 47.559 30.669 30.669 47.559 71.445 47.56 114.817-.001 42.986-17.166 84.428-47.561 114.822z"/><path d="m309.712 252.351-40.169-11.534a14.971 14.971 0 0 0-14.816 3.903l-9.823 10.008c-4.142 4.22-10.427 5.576-15.909 3.358-19.002-7.69-58.974-43.23-69.182-61.007-2.945-5.128-2.458-11.539 1.158-16.218l8.576-11.095a14.97 14.97 0 0 0 1.847-15.21l-16.9-38.223c-4.048-9.155-15.747-11.82-23.39-5.356-11.211 9.482-24.513 23.891-26.13 39.854-2.851 28.144 9.219 63.622 54.862 106.222 52.73 49.215 94.956 55.717 122.449 49.057 15.594-3.777 28.056-18.919 35.921-31.317 5.362-8.453 1.128-19.679-8.494-22.442z"/></symbol></svg>